<?xml version="1.0" standalone="no"?>
<!DOCTYPE svg PUBLIC "-//W3C//DTD SVG 20010904//EN"
 "http://www.w3.org/TR/2001/REC-SVG-20010904/DTD/svg10.dtd">
<svg version="1.0" xmlns="http://www.w3.org/2000/svg"
 width="520.000000pt" height="650.000000pt" viewBox="0 0 520.000000 650.000000"
 preserveAspectRatio="xMidYMid meet">

<g transform="translate(0.000000,650.000000) scale(0.100000,-0.100000)"
fill="#000000" stroke="none">
<path d="M1762 6338 c-43 -77 -56 -119 -48 -161 4 -21 10 -37 15 -37 4 0 16
-8 27 -17 25 -22 67 -47 117 -69 20 -9 37 -20 37 -25 0 -5 6 -9 13 -9 16 0 83
-72 92 -99 7 -22 25 -29 25 -10 0 5 5 7 10 4 6 -3 10 -2 10 3 0 6 20 22 45 36
25 15 45 29 45 32 0 3 -17 -5 -37 -17 -34 -21 -36 -22 -29 -3 35 90 14 121
-127 189 -146 69 -162 87 -162 171 0 35 -1 64 -2 64 -1 0 -15 -24 -31 -52z
m305 -350 c-3 -7 -5 -2 -5 12 0 14 2 19 5 13 2 -7 2 -19 0 -25z"/>
<path d="M2128 5863 c6 -2 18 -2 25 0 6 3 1 5 -13 5 -14 0 -19 -2 -12 -5z"/>
<path d="M3128 5783 c7 -3 16 -2 19 1 4 3 -2 6 -13 5 -11 0 -14 -3 -6 -6z"/>
<path d="M3188 5783 c6 -2 18 -2 25 0 6 3 1 5 -13 5 -14 0 -19 -2 -12 -5z"/>
<path d="M2883 5765 c0 -8 4 -12 9 -9 5 3 6 10 3 15 -9 13 -12 11 -12 -6z"/>
<path d="M3085 5770 c-3 -6 1 -7 9 -4 18 7 21 14 7 14 -6 0 -13 -4 -16 -10z"/>
<path d="M3257 5759 c7 -7 15 -10 18 -7 3 3 -2 9 -12 12 -14 6 -15 5 -6 -5z"/>
<path d="M3286 5727 c3 -10 9 -15 12 -12 3 3 0 11 -7 18 -10 9 -11 8 -5 -6z"/>
<path d="M3308 5639 c4 -64 11 -75 13 -18 2 55 0 79 -8 79 -5 0 -6 -27 -5 -61z"/>
<path d="M3021 5674 c0 -11 3 -14 6 -6 3 7 2 16 -1 19 -3 4 -6 -2 -5 -13z"/>
<path d="M3020 5621 c0 -11 4 -22 9 -25 4 -3 6 6 3 19 -5 30 -12 33 -12 6z"/>
<path d="M3145 5550 c-10 -21 -25 -41 -34 -44 -13 -4 -12 -4 2 -3 18 2 76 87
59 87 -5 0 -17 -18 -27 -40z"/>
<path d="M3038 5565 c6 -11 21 -29 34 -40 22 -19 22 -19 -2 10 -40 48 -43 51
-32 30z"/>
<path d="M3290 5555 c-7 -9 -8 -15 -2 -15 5 0 12 7 16 15 3 8 4 15 2 15 -2 0
-9 -7 -16 -15z"/>
<path d="M3200 5544 c0 -6 7 -19 16 -30 14 -18 14 -18 3 6 -14 31 -19 36 -19
24z"/>
<path d="M2555 5360 c-83 -19 -140 -38 -117 -39 17 -1 235 49 241 55 9 9 -47
2 -124 -16z"/>
<path d="M3185 5350 c3 -5 14 -10 23 -10 15 0 15 2 2 10 -20 13 -33 13 -25 0z"/>
<path d="M3535 5291 c-3 -5 -20 -7 -39 -4 l-33 5 -7 -80 -7 -79 -43 4 c-23 3
-70 -2 -105 -11 -80 -20 -118 -20 -129 0 -8 15 -10 15 -16 -1 -9 -23 4 -96 19
-101 6 -3 34 4 61 14 67 27 125 35 157 23 23 -9 27 -17 28 -53 l2 -43 7 35 c4
19 8 29 9 22 0 -7 6 -10 12 -6 7 4 10 26 6 59 -6 55 -6 54 69 183 14 23 23 42
20 42 -3 0 -7 -4 -11 -9z"/>
<path d="M2284 5237 c-57 -59 -89 -106 -127 -184 l-33 -68 -39 12 c-22 6 -78
11 -125 11 -47 -1 -67 -3 -45 -5 179 -15 196 -20 236 -59 29 -28 45 -58 65
-116 14 -43 29 -78 34 -78 25 0 33 34 26 124 -6 85 -4 103 20 178 15 45 40
110 56 142 29 57 29 60 12 73 -26 19 -35 16 -80 -30z"/>
<path d="M2540 5130 c-32 -11 -66 -31 -82 -49 -27 -30 -46 -77 -35 -87 3 -3
27 6 54 19 125 63 271 77 445 43 109 -22 119 -19 138 40 14 42 9 50 -19 34
-16 -8 -48 -7 -131 5 -154 21 -300 19 -370 -5z"/>
<path d="M2718 5023 c7 -3 16 -2 19 1 4 3 -2 6 -13 5 -11 0 -14 -3 -6 -6z"/>
<path d="M2841 5017 c2 -1 13 -9 24 -17 19 -14 19 -14 6 3 -7 9 -18 17 -24 17
-6 0 -8 -1 -6 -3z"/>
<path d="M3260 5000 c-17 -6 -9 -7 25 -3 28 3 52 7 54 9 8 7 -54 2 -79 -6z"/>
<path d="M1855 4989 c-4 -6 -5 -12 -2 -15 2 -3 7 2 10 11 7 17 1 20 -8 4z"/>
<path d="M3355 4990 c3 -5 8 -10 11 -10 2 0 4 5 4 10 0 6 -5 10 -11 10 -5 0
-7 -4 -4 -10z"/>
<path d="M2738 4973 c18 -2 45 -2 60 0 15 2 0 4 -33 4 -33 0 -45 -2 -27 -4z"/>
<path d="M2650 4960 c0 -5 -6 -8 -12 -6 -7 1 -10 1 -6 -1 4 -3 2 -15 -4 -28
-25 -56 55 -104 101 -60 21 21 17 66 -9 87 -24 19 -70 25 -70 8z m24 -52 c-5
-7 -9 -17 -9 -22 0 -5 -5 -11 -12 -13 -7 -3 -11 8 -11 29 1 44 7 53 25 35 10
-9 12 -20 7 -29z"/>
<path d="M3223 4948 c2 -7 1 -22 -3 -33 -16 -45 30 -88 69 -63 38 24 35 78 -5
97 -34 15 -67 14 -61 -1z m38 -29 c9 -18 8 -20 -8 -17 -10 2 -18 12 -19 25 -1
26 11 22 27 -8z m-11 -39 c0 -5 -4 -10 -10 -10 -5 0 -10 5 -10 10 0 6 5 10 10
10 6 0 10 -4 10 -10z"/>
<path d="M2569 4935 c-32 -17 -43 -41 -23 -49 8 -3 14 -1 14 5 0 5 11 21 25
34 27 28 22 31 -16 10z"/>
<path d="M3370 4930 c17 -33 17 -33 24 -22 3 5 -4 18 -16 28 -21 19 -21 19 -8
-6z"/>
<path d="M1842 4920 c0 -14 2 -19 5 -12 2 6 2 18 0 25 -3 6 -5 1 -5 -13z"/>
<path d="M2003 4933 c9 -2 25 -2 35 0 9 3 1 5 -18 5 -19 0 -27 -2 -17 -5z"/>
<path d="M1903 4923 c9 -2 23 -2 30 0 6 3 -1 5 -18 5 -16 0 -22 -2 -12 -5z"/>
<path d="M2083 4914 c15 -8 27 -20 27 -26 0 -6 3 -8 7 -5 9 10 -27 47 -46 47
-10 -1 -5 -7 12 -16z"/>
<path d="M3422 4895 c0 -16 2 -22 5 -12 2 9 2 23 0 30 -3 6 -5 -1 -5 -18z"/>
<path d="M3121 4896 c2 -2 15 -9 29 -15 24 -11 24 -11 6 3 -16 13 -49 24 -35
12z"/>
<path d="M1850 4874 c0 -22 44 -109 61 -120 5 -3 6 -11 3 -17 -4 -7 -4 -9 0
-6 4 4 30 -17 57 -46 34 -36 52 -64 56 -89 4 -27 17 -45 52 -73 36 -30 42 -32
29 -13 -10 14 -27 45 -38 69 -11 25 -47 72 -78 105 -77 81 -111 128 -128 173
-9 25 -13 31 -14 17z"/>
<path d="M3209 4843 c12 -18 24 -33 27 -33 9 0 -15 37 -33 51 -12 10 -11 5 6
-18z"/>
<path d="M3432 4830 c0 -14 2 -19 5 -12 2 6 2 18 0 25 -3 6 -5 1 -5 -13z"/>
<path d="M2141 4804 c0 -11 3 -14 6 -6 3 7 2 16 -1 19 -3 4 -6 -2 -5 -13z"/>
<path d="M3251 4776 c7 -15 15 -23 17 -16 3 7 -3 19 -13 28 -15 16 -16 15 -4
-12z"/>
<path d="M3441 4784 c0 -11 3 -14 6 -6 3 7 2 16 -1 19 -3 4 -6 -2 -5 -13z"/>
<path d="M2150 4767 c0 -8 -9 -18 -19 -22 -11 -3 -25 -13 -33 -22 -10 -14 -7
-13 21 3 34 19 49 40 37 51 -3 4 -6 -1 -6 -10z"/>
<path d="M3452 4740 c0 -14 2 -19 5 -12 2 6 2 18 0 25 -3 6 -5 1 -5 -13z"/>
<path d="M3272 4720 c0 -14 2 -19 5 -12 2 6 2 18 0 25 -3 6 -5 1 -5 -13z"/>
<path d="M3462 4690 c0 -14 2 -19 5 -12 2 6 2 18 0 25 -3 6 -5 1 -5 -13z"/>
<path d="M2100 4676 c0 -8 4 -17 9 -20 5 -4 7 3 4 14 -6 23 -13 26 -13 6z"/>
<path d="M3268 4637 c-3 -19 -2 -25 4 -19 6 6 8 18 6 28 -3 14 -5 12 -10 -9z"/>
<path d="M3471 4634 c0 -11 3 -14 6 -6 3 7 2 16 -1 19 -3 4 -6 -2 -5 -13z"/>
<path d="M2659 4611 c-40 -40 -37 -53 7 -35 49 20 74 13 134 -41 81 -72 221
-101 228 -46 5 32 -6 40 -74 56 -33 8 -91 32 -129 54 -86 50 -124 53 -166 12z"/>
<path d="M2992 4591 c56 -4 83 -11 100 -26 13 -11 11 -8 -4 8 -26 25 -34 27
-101 25 l-72 -1 77 -6z"/>
<path d="M3229 4569 c-15 -15 -25 -29 -24 -31 2 -2 -15 -3 -38 -3 -41 0 -42
-1 -42 -35 0 -34 1 -35 40 -34 22 1 67 5 101 9 47 6 67 4 92 -9 42 -22 45 -21
27 13 -23 45 -53 61 -114 61 l-54 0 22 24 c13 14 33 27 45 29 17 4 17 4 -4 4
-15 1 -36 -11 -51 -28z"/>
<path d="M3482 4580 c0 -14 2 -19 5 -12 2 6 2 18 0 25 -3 6 -5 1 -5 -13z"/>
<path d="M2159 4553 c-11 -13 -11 -15 -1 -9 8 5 26 12 40 16 l27 8 -26 1 c-15
1 -33 -7 -40 -16z"/>
<path d="M3492 4490 c0 -19 2 -27 5 -17 2 9 2 25 0 35 -3 9 -5 1 -5 -18z"/>
<path d="M2133 4465 c0 -8 4 -12 9 -9 5 3 6 10 3 15 -9 13 -12 11 -12 -6z"/>
<path d="M2817 4439 c7 -7 15 -10 18 -7 3 3 -2 9 -12 12 -14 6 -15 5 -6 -5z"/>
<path d="M3502 4415 c0 -16 2 -22 5 -12 2 9 2 23 0 30 -3 6 -5 -1 -5 -18z"/>
<path d="M2868 4423 c6 -2 18 -2 25 0 6 3 1 5 -13 5 -14 0 -19 -2 -12 -5z"/>
<path d="M3193 4423 c9 -2 25 -2 35 0 9 3 1 5 -18 5 -19 0 -27 -2 -17 -5z"/>
<path d="M2988 4413 c34 -2 88 -2 120 0 31 2 3 3 -63 3 -66 0 -92 -1 -57 -3z"/>
<path d="M2151 4354 c0 -11 3 -14 6 -6 3 7 2 16 -1 19 -3 4 -6 -2 -5 -13z"/>
<path d="M3491 4354 c0 -11 3 -14 6 -6 3 7 2 16 -1 19 -3 4 -6 -2 -5 -13z"/>
<path d="M3088 4333 c6 -2 18 -2 25 0 6 3 1 5 -13 5 -14 0 -19 -2 -12 -5z"/>
<path d="M3459 4297 c-35 -45 -46 -68 -14 -32 25 29 49 65 43 65 -2 0 -15 -15
-29 -33z"/>
<path d="M3365 4188 l-40 -43 43 40 c39 36 47 45 39 45 -2 0 -21 -19 -42 -42z"/>
<path d="M2216 4209 c3 -5 -1 -9 -9 -9 -8 0 -26 -9 -41 -21 -35 -28 -34 -59 9
-194 40 -127 41 -129 18 -121 -9 4 -19 3 -22 -2 -3 -5 -71 -29 -151 -55 -80
-25 -188 -67 -240 -92 -99 -48 -276 -161 -301 -191 -8 -10 13 0 46 23 76 51
268 153 361 191 80 33 235 80 282 87 20 2 32 -1 32 -8 0 -7 9 -18 20 -25 11
-6 17 -18 14 -26 -3 -7 2 -16 12 -20 13 -5 14 -9 4 -21 -6 -8 -9 -19 -5 -25 5
-8 11 -6 19 5 11 16 13 15 27 -1 7 -10 9 -15 2 -11 -7 5 -9 0 -6 -14 4 -13 8
-17 13 -9 9 15 53 -58 46 -77 -3 -8 -2 -12 3 -9 10 6 34 -52 26 -63 -2 -4 2
-8 10 -8 17 0 15 65 -2 72 -7 2 -13 10 -13 17 0 10 2 10 9 0 7 -11 9 -10 14 3
4 9 3 14 -2 10 -15 -9 -42 25 -36 45 3 10 1 21 -4 25 -7 4 -9 -1 -5 -12 3 -10
-4 -1 -16 20 -11 21 -18 43 -14 50 4 7 4 9 -1 5 -10 -9 -34 21 -35 44 0 9 -5
18 -11 20 -5 2 -11 10 -13 18 -1 8 -7 24 -13 35 -6 11 -10 32 -9 46 1 20 -2
25 -14 21 -8 -3 -12 -2 -8 3 4 4 3 13 -2 20 -13 15 -50 132 -50 157 0 24 17
58 29 58 5 0 21 -20 35 -44 33 -56 121 -136 205 -186 61 -36 68 -43 64 -68 -3
-25 -3 -25 6 -5 l10 22 48 -24 c65 -33 106 -49 121 -46 15 2 15 -18 1 -93 -16
-88 13 -148 76 -160 l33 -7 -14 -57 c-7 -31 -13 -80 -14 -107 l0 -51 -33 4
c-22 2 -39 -2 -50 -12 -14 -14 -16 -12 -27 32 -27 112 -24 106 -39 88 -10 -12
-10 -16 -1 -16 7 0 10 -7 6 -17 -4 -9 -2 -19 4 -23 12 -8 18 -30 19 -72 1 -20
6 -26 21 -25 11 1 20 8 20 15 0 11 9 13 37 9 21 -4 39 -11 41 -17 4 -11 52
-14 52 -3 0 3 -5 35 -11 70 -9 54 -8 72 6 116 9 28 24 60 32 69 15 16 13 19
-28 38 -24 11 -52 20 -61 20 -41 0 -49 71 -18 152 11 29 20 56 20 59 0 3 -33
13 -72 23 -92 23 -199 76 -282 138 -56 42 -67 55 -80 100 -8 29 -13 55 -11 58
7 11 -47 57 -73 63 -12 3 -20 1 -16 -4z"/>
<path d="M3101 4211 c-33 -6 -35 -9 -47 -66 -8 -33 -17 -76 -22 -95 l-8 -35
-74 -6 -75 -6 100 0 c89 -1 130 -5 173 -19 9 -2 6 -15 -10 -49 -30 -62 -44
-60 -91 13 -25 38 -31 42 -67 42 l-40 0 0 -56 c0 -80 19 -142 58 -194 66 -85
72 -108 72 -284 0 -132 2 -157 14 -147 9 7 12 26 8 59 -4 49 13 132 27 132 5
0 12 -36 16 -80 4 -44 11 -80 16 -80 5 0 9 5 9 11 0 5 5 7 11 3 8 -5 8 -1 0
14 -6 11 -11 40 -11 64 0 24 -4 60 -9 80 -6 27 -5 42 6 57 12 18 11 23 -7 41
-11 11 -25 20 -31 20 -7 0 -9 9 -5 23 3 12 6 29 7 37 0 8 5 4 10 -10 6 -19 7
-15 3 15 -3 22 -9 41 -13 43 -3 1 -5 20 -3 41 2 21 -1 49 -8 61 -15 28 -6 37
15 16 11 -11 34 -16 70 -16 29 0 60 -3 69 -6 20 -8 21 -50 1 -88 -9 -16 -14
-31 -12 -33 9 -8 57 51 67 83 6 19 15 34 18 34 4 0 38 -8 75 -19 52 -14 87
-34 157 -87 101 -76 124 -106 199 -264 28 -58 62 -124 77 -147 18 -31 22 -43
13 -44 -8 -1 -3 -4 10 -8 15 -4 29 -19 38 -41 7 -19 11 -25 9 -12 -6 31 2 28
59 -19 121 -100 245 -172 360 -208 92 -30 116 -43 153 -85 31 -35 31 -35 25
-128 -5 -100 -40 -198 -69 -198 -8 0 -12 -4 -9 -10 3 -5 1 -10 -4 -10 -6 0
-10 -3 -9 -7 5 -14 -45 -72 -55 -66 -6 3 -7 1 -3 -5 10 -17 -9 -23 -29 -8 -22
16 -13 52 15 59 31 8 23 24 -9 19 -27 -4 -30 -1 -29 24 0 55 -37 242 -47 232
-2 -2 3 -28 11 -58 12 -39 17 -113 20 -250 4 -169 2 -203 -15 -255 -10 -33
-21 -73 -25 -90 -5 -25 -4 -27 5 -12 6 11 12 24 14 30 1 7 5 19 8 27 4 8 11
38 17 65 8 36 38 90 107 193 105 158 127 210 137 339 l6 83 -41 40 c-29 28
-95 67 -207 121 -91 45 -185 97 -209 117 -25 21 -49 36 -54 35 -5 -2 -8 1 -6
5 1 5 -31 37 -72 71 -99 83 -121 113 -202 271 -50 99 -82 150 -119 188 -56 56
-139 102 -192 106 -70 6 -114 27 -126 58 -11 30 -13 31 -57 25 -25 -4 -45 -3
-45 1 0 4 7 32 15 62 8 30 12 63 9 72 -3 11 10 31 38 58 l43 42 -42 -33 c-24
-18 -44 -30 -46 -28 -2 2 -18 31 -37 64 -30 55 -47 76 -60 74 -3 -1 -20 -4
-39 -8z m19 -495 c0 -8 -5 -18 -11 -21 -6 -4 -8 -13 -6 -19 3 -7 1 -19 -4 -27
-10 -16 -13 39 -3 65 8 20 24 21 24 2z m27 -258 c-3 -8 -6 -5 -6 6 -1 11 2 17
5 13 3 -3 4 -12 1 -19z m1213 -1023 c0 -2 -10 -10 -22 -16 -21 -11 -22 -11 -9
4 13 16 31 23 31 12z"/>
<path d="M2350 4130 c8 -5 20 -10 25 -10 6 0 3 5 -5 10 -8 5 -19 10 -25 10 -5
0 -3 -5 5 -10z"/>
<path d="M2445 4095 c34 -16 72 -21 45 -6 -8 5 -28 11 -45 14 l-30 6 30 -14z"/>
<path d="M2535 4070 c11 -5 27 -9 35 -9 9 0 8 4 -5 9 -11 5 -27 9 -35 9 -9 0
-8 -4 5 -9z"/>
<path d="M2598 4053 c7 -3 16 -2 19 1 4 3 -2 6 -13 5 -11 0 -14 -3 -6 -6z"/>
<path d="M2660 4040 c14 -4 36 -8 50 -8 22 0 22 1 -5 8 -16 4 -39 8 -50 8 -16
0 -15 -2 5 -8z"/>
<path d="M2753 4023 c9 -2 23 -2 30 0 6 3 -1 5 -18 5 -16 0 -22 -2 -12 -5z"/>
<path d="M2818 4013 c12 -2 30 -2 40 0 9 3 -1 5 -23 4 -22 0 -30 -2 -17 -4z"/>
<path d="M2271 3854 c0 -11 3 -14 6 -6 3 7 2 16 -1 19 -3 4 -6 -2 -5 -13z"/>
<path d="M2320 3846 c0 -2 8 -10 18 -17 15 -13 16 -12 3 4 -13 16 -21 21 -21
13z"/>
<path d="M2497 3802 c-10 -10 -17 -22 -17 -27 0 -4 9 2 20 15 11 13 20 25 20
27 0 7 -8 2 -23 -15z"/>
<path d="M2469 3708 c-2 -25 -1 -44 4 -41 4 2 7 -5 7 -17 0 -12 5 -18 10 -15
6 4 7 12 3 18 -4 7 -10 32 -13 57 l-6 45 -5 -47z"/>
<path d="M2548 3603 c13 -3 22 -12 22 -23 0 -10 10 -20 23 -23 20 -5 20 -5 5
7 -10 7 -18 21 -18 30 0 11 -8 16 -27 15 -24 -2 -25 -2 -5 -6z"/>
<path d="M3420 3592 c0 -7 -9 -12 -20 -12 -15 0 -20 -7 -20 -24 0 -14 4 -28
10 -31 6 -4 9 4 7 17 -5 47 25 21 53 -47 l29 -70 -40 45 -41 45 36 -56 c20
-31 49 -65 65 -76 l28 -21 -38 105 c-33 94 -69 159 -69 125z"/>
<path d="M2623 3515 c0 -22 2 -30 4 -17 2 12 2 30 0 40 -3 9 -5 -1 -4 -23z"/>
<path d="M2340 3525 c7 -9 15 -13 17 -11 7 7 -7 26 -19 26 -6 0 -6 -6 2 -15z"/>
<path d="M1431 3484 c-12 -15 -35 -70 -51 -123 -74 -246 -65 -342 51 -513 153
-227 217 -296 437 -474 l134 -108 85 -171 c144 -286 189 -354 487 -719 215
-264 296 -397 296 -483 0 -66 -63 -180 -123 -220 -122 -82 -358 -73 -544 20
-38 20 -127 81 -199 137 -171 135 -358 259 -371 246 -3 -2 10 -12 29 -22 52
-26 116 -76 280 -216 84 -71 173 -140 198 -153 109 -54 284 -97 397 -96 97 0
154 13 205 47 21 13 41 24 45 24 16 1 71 87 92 143 30 83 27 113 -24 213 -49
98 -123 205 -265 382 -51 64 -93 122 -93 129 0 7 -4 10 -8 7 -4 -2 -16 8 -27
23 -20 28 -22 33 -22 54 0 5 -4 8 -9 5 -12 -8 -39 26 -36 45 2 9 -2 16 -9 15
-6 0 -11 2 -11 5 0 4 -9 15 -20 25 -12 11 -15 15 -8 10 8 -5 13 -4 13 3 0 6
-12 16 -26 21 -14 6 -22 14 -19 20 3 5 2 10 -4 10 -6 0 -17 14 -26 30 -9 17
-13 30 -10 30 3 0 -4 10 -15 22 -12 13 -16 24 -10 26 5 2 10 8 10 14 0 6 -6 8
-14 5 -8 -3 -17 1 -20 9 -3 8 -1 14 4 14 6 0 10 4 10 10 0 5 -3 9 -7 9 -20 -3
-34 2 -28 11 3 6 1 10 -5 10 -6 0 -8 5 -5 10 3 6 1 10 -6 10 -7 0 -10 3 -6 6
3 3 -3 15 -13 27 -11 11 -17 24 -14 29 3 4 1 8 -4 8 -5 0 -14 11 -20 25 -13
29 -5 33 14 8 20 -26 18 2 -2 33 -9 13 -14 27 -11 30 11 11 47 -8 47 -25 0
-10 11 -23 25 -29 33 -15 38 -15 30 1 -4 6 1 3 10 -8 9 -11 20 -20 25 -20 12
0 25 -15 25 -28 0 -7 10 -13 22 -15 19 -3 21 -7 13 -22 -7 -14 -6 -18 5 -16 8
1 18 6 22 11 4 4 2 5 -6 0 -10 -6 -12 -4 -7 4 6 9 12 9 25 -3 10 -9 21 -16 24
-16 15 0 6 35 -15 57 -12 13 -16 23 -9 23 7 0 9 5 5 11 -4 8 -9 7 -15 -2 -6
-10 -14 -7 -33 14 -14 15 -30 27 -35 27 -6 0 -14 6 -18 13 -9 14 -89 77 -388
302 -251 189 -356 291 -412 400 -68 134 -79 178 -89 375 -6 112 -5 117 26 200
17 46 36 88 43 92 6 4 9 10 5 13 -3 3 -15 -6 -27 -21z m642 -1274 c7 -1 25
-11 41 -24 20 -17 25 -26 16 -31 -9 -6 -11 -4 -5 6 6 11 5 11 -4 3 -10 -10
-10 -17 0 -35 12 -24 12 -24 -9 -5 -12 10 -24 28 -28 39 -4 12 -13 27 -20 35
-8 7 -14 19 -13 25 0 9 2 8 6 0 2 -7 10 -13 16 -13z"/>
<path d="M3173 3460 c0 -25 2 -35 4 -22 2 12 2 32 0 45 -2 12 -4 2 -4 -23z"/>
<path d="M1910 3332 c0 -7 18 -48 40 -91 21 -43 36 -82 32 -86 -4 -5 -2 -6 3
-2 14 7 47 -50 34 -58 -5 -4 -6 -11 -3 -17 4 -7 9 -7 13 1 4 6 12 2 20 -10 7
-12 8 -18 2 -15 -7 4 -8 1 -5 -8 3 -9 10 -14 14 -11 4 3 20 -13 35 -35 66 -95
211 -209 268 -210 9 0 17 -4 17 -9 0 -4 12 -6 28 -4 25 4 26 3 7 -8 -11 -7
-25 -19 -31 -27 -6 -8 -16 -12 -21 -9 -6 4 -18 -6 -27 -21 l-17 -27 20 24 c12
13 21 19 21 14 0 -16 -28 -48 -42 -48 -7 0 -13 -7 -13 -15 0 -22 -48 -96 -53
-82 -2 7 -8 9 -14 6 -7 -4 -6 -9 2 -14 9 -6 8 -14 -5 -34 -10 -14 -21 -26 -26
-26 -5 0 -9 -5 -9 -11 0 -5 5 -7 12 -3 8 5 9 2 5 -10 -6 -15 -3 -15 22 3 15
11 32 17 36 13 5 -4 5 -1 1 6 -6 11 -11 11 -23 0 -9 -7 10 24 43 69 32 45 66
83 74 83 8 0 26 10 39 21 20 16 22 22 11 32 -8 8 -11 8 -7 1 4 -7 -5 -19 -19
-29 -24 -16 -25 -16 -16 2 17 30 60 66 71 58 6 -3 11 1 11 9 0 9 4 16 10 16 6
0 5 -10 -2 -25 -9 -19 -14 -22 -25 -14 -15 13 -18 -2 -4 -16 6 -6 2 -38 -9
-81 -16 -60 -36 -307 -22 -264 3 8 8 17 11 20 4 3 13 41 19 85 19 121 23 136
32 130 10 -6 35 74 26 83 -3 3 -9 -9 -12 -27 -4 -17 -10 -34 -14 -36 -5 -3 -3
17 4 43 19 69 51 125 40 70 -4 -22 -4 -22 6 1 6 13 9 29 7 35 -2 6 4 23 14 37
10 14 16 29 12 32 -14 15 48 30 85 21 l37 -9 6 -75 c8 -100 81 -279 76 -187
-1 19 -5 33 -8 31 -11 -6 -41 115 -34 138 5 15 4 18 -5 13 -8 -5 -11 -4 -6 3
4 6 14 8 22 5 9 -3 19 -1 23 4 3 6 65 21 137 35 l131 24 1 -29 c1 -46 10 -42
13 6 2 25 1 43 -3 40 -5 -2 -8 0 -8 6 0 5 12 12 28 14 15 2 0 2 -33 0 -85 -6
-210 -32 -262 -54 -25 -10 -46 -19 -48 -19 -1 0 -5 17 -9 39 -3 21 -13 44 -21
51 -9 7 -14 18 -11 25 2 6 -2 12 -10 12 -8 0 -14 -4 -14 -8 0 -4 -10 -9 -22
-13 -13 -3 -39 -20 -58 -38 -34 -32 -79 -50 -64 -26 5 7 3 8 -7 2 -8 -4 -20
-9 -28 -11 -8 -1 -17 -7 -21 -13 -4 -6 -13 -9 -21 -6 -8 2 -27 7 -42 10 -16 4
-25 11 -21 17 3 6 -2 9 -12 7 -13 -2 -19 3 -18 15 1 9 -2 17 -7 17 -5 0 -9 -4
-9 -10 0 -5 -7 -7 -16 -3 -11 4 -12 8 -4 13 7 4 0 10 -17 13 -29 7 -163 125
-163 144 0 6 -6 13 -14 16 -8 3 -38 39 -66 79 -36 51 -49 79 -46 94 4 16 -5
34 -34 65 -21 24 -39 38 -40 31z"/>
<path d="M3490 3288 c-11 -18 -19 -44 -19 -58 1 -23 2 -22 8 5 4 17 16 43 25
58 10 15 15 27 12 27 -3 0 -15 -15 -26 -32z"/>
<path d="M3162 3270 c2 -21 7 -30 20 -30 22 0 24 26 4 46 -21 21 -27 17 -24
-16z"/>
<path d="M2690 3270 c-8 -5 -10 -10 -5 -10 6 0 17 5 25 10 8 5 11 10 5 10 -5
0 -17 -5 -25 -10z"/>
<path d="M3085 3260 c-3 -5 1 -10 9 -10 9 0 16 5 16 10 0 6 -4 10 -9 10 -6 0
-13 -4 -16 -10z"/>
<path d="M2743 3253 c-7 -3 -13 -11 -13 -20 0 -12 2 -12 16 2 18 17 16 25 -3
18z"/>
<path d="M2810 3240 c19 -10 41 -22 48 -26 7 -4 18 -2 24 4 13 13 -13 27 -67
35 l-40 6 35 -19z"/>
<path d="M2680 3205 c0 -8 5 -15 11 -15 5 0 8 4 4 9 -3 5 3 12 12 14 14 4 13
5 -4 6 -14 1 -23 -5 -23 -14z"/>
<path d="M3295 3212 c3 -3 0 -11 -7 -19 -6 -7 -9 -16 -6 -19 3 -2 12 6 21 19
13 20 13 24 1 24 -8 0 -12 -3 -9 -5z"/>
<path d="M2933 3184 c-17 -11 -16 -13 11 -24 16 -6 59 -12 95 -13 61 -2 65 -1
71 23 l7 25 -84 1 c-53 1 -89 -3 -100 -12z"/>
<path d="M3645 3190 c-3 -6 1 -7 9 -4 18 7 21 14 7 14 -6 0 -13 -4 -16 -10z"/>
<path d="M3180 3179 c0 -5 5 -7 10 -4 6 3 10 8 10 11 0 2 -4 4 -10 4 -5 0 -10
-5 -10 -11z"/>
<path d="M3911 3163 c0 -12 -4 -30 -7 -40 -5 -14 -4 -15 5 -7 7 6 11 24 8 40
-3 21 -4 23 -6 7z"/>
<path d="M2890 3160 c-9 -6 -10 -10 -3 -10 6 0 15 5 18 10 8 12 4 12 -15 0z"/>
<path d="M3626 3155 c-3 -9 -6 -22 -5 -28 0 -7 5 -1 10 12 5 13 8 26 5 28 -2
2 -6 -3 -10 -12z"/>
<path d="M3191 3144 c0 -11 3 -14 6 -6 3 7 2 16 -1 19 -3 4 -6 -2 -5 -13z"/>
<path d="M3492 3130 c0 -14 2 -19 5 -12 2 6 2 18 0 25 -3 6 -5 1 -5 -13z"/>
<path d="M2070 3100 c0 -5 5 -10 11 -10 5 0 7 5 4 10 -3 6 -8 10 -11 10 -2 0
-4 -4 -4 -10z"/>
<path d="M2685 3100 c-3 -5 -1 -10 4 -10 6 0 11 5 11 10 0 6 -2 10 -4 10 -3 0
-8 -4 -11 -10z"/>
<path d="M2804 3091 c9 -10 13 -21 9 -26 -5 -4 7 2 24 15 l33 24 176 -13 c96
-7 178 -10 181 -7 4 3 2 6 -3 7 -5 0 -22 3 -39 5 -16 2 -112 6 -213 8 -173 4
-182 3 -168 -13z"/>
<path d="M3530 3100 l-95 -6 97 -2 c56 -1 99 2 103 8 3 6 3 9 -2 8 -4 -1 -51
-5 -103 -8z"/>
<path d="M3668 3103 c7 -3 16 -2 19 1 4 3 -2 6 -13 5 -11 0 -14 -3 -6 -6z"/>
<path d="M3278 3083 c23 -2 61 -2 85 0 23 2 4 4 -43 4 -47 0 -66 -2 -42 -4z"/>
<path d="M2680 3052 c0 -12 3 -12 18 -1 9 7 19 14 21 16 2 1 -6 1 -18 0 -11
-1 -21 -8 -21 -15z"/>
<path d="M2683 3003 c9 -2 23 -2 30 0 6 3 -1 5 -18 5 -16 0 -22 -2 -12 -5z"/>
<path d="M3750 2990 c6 -11 13 -20 16 -20 2 0 0 9 -6 20 -6 11 -13 20 -16 20
-2 0 0 -9 6 -20z"/>
<path d="M2720 2930 c0 -6 4 -9 9 -6 5 4 12 1 14 -4 3 -6 4 -5 3 2 -3 15 -26
23 -26 8z"/>
<path d="M2265 2920 c-3 -5 -1 -10 4 -10 6 0 11 5 11 10 0 6 -2 10 -4 10 -3 0
-8 -4 -11 -10z"/>
<path d="M4220 2911 c0 -6 4 -13 10 -16 6 -3 7 1 4 9 -7 18 -14 21 -14 7z"/>
<path d="M3128 2873 c6 -2 18 -2 25 0 6 3 1 5 -13 5 -14 0 -19 -2 -12 -5z"/>
<path d="M3188 2863 c7 -3 16 -2 19 1 4 3 -2 6 -13 5 -11 0 -14 -3 -6 -6z"/>
<path d="M2378 2853 c7 -3 16 -2 19 1 4 3 -2 6 -13 5 -11 0 -14 -3 -6 -6z"/>
<path d="M3268 2843 c7 -3 16 -2 19 1 4 3 -2 6 -13 5 -11 0 -14 -3 -6 -6z"/>
<path d="M3420 2796 c0 -2 7 -7 16 -10 8 -3 12 -2 9 4 -6 10 -25 14 -25 6z"/>
<path d="M2768 2783 c7 -3 16 -2 19 1 4 3 -2 6 -13 5 -11 0 -14 -3 -6 -6z"/>
<path d="M3480 2765 c0 -9 29 -56 34 -55 10 1 67 -30 113 -62 32 -22 45 -39
54 -71 18 -66 19 -70 23 -66 3 2 -1 33 -9 67 -11 55 -11 63 2 58 8 -3 17 -6
19 -6 2 0 4 -7 4 -15 0 -8 6 -15 13 -15 12 0 66 -33 162 -101 48 -34 50 -38
56 -95 4 -38 5 -27 2 31 -2 50 -8 106 -13 125 -8 30 -8 27 -4 -18 5 -48 4 -52
-13 -45 -23 9 -71 42 -101 71 -12 12 -29 22 -37 22 -8 0 -15 4 -15 9 0 5 -35
29 -77 54 -90 52 -213 117 -213 112z"/>
<path d="M3032 2730 c0 -19 2 -27 5 -17 2 9 2 25 0 35 -3 9 -5 1 -5 -18z"/>
<path d="M3521 2682 c-2 -22 21 -102 30 -107 4 -3 1 18 -7 47 -20 69 -22 76
-23 60z"/>
<path d="M2740 2661 c0 -5 5 -13 10 -16 6 -3 10 -2 10 4 0 5 -4 13 -10 16 -5
3 -10 2 -10 -4z"/>
<path d="M3043 2625 c0 -27 2 -38 4 -22 2 15 2 37 0 50 -2 12 -4 0 -4 -28z"/>
<path d="M2347 2633 c-3 -5 6 -10 21 -11 14 -1 30 -8 34 -15 6 -8 8 -6 6 8 -3
21 -51 34 -61 18z"/>
<path d="M3730 2555 c0 -8 4 -15 10 -15 5 0 7 7 4 15 -4 8 -8 15 -10 15 -2 0
-4 -7 -4 -15z"/>
<path d="M2791 2544 c0 -11 3 -14 6 -6 3 7 2 16 -1 19 -3 4 -6 -2 -5 -13z"/>
<path d="M3557 2485 c6 -81 13 -114 13 -57 0 26 4 32 23 33 33 1 90 24 95 38
3 9 -6 10 -34 5 -77 -15 -88 -12 -96 26 -3 19 -4 -1 -1 -45z"/>
<path d="M4396 2552 c-2 -4 -1 -14 3 -21 6 -9 11 -10 15 -2 4 6 2 11 -4 11 -6
0 -8 5 -5 10 3 6 4 10 1 10 -3 0 -7 -4 -10 -8z"/>
<path d="M2280 2530 c0 -5 4 -10 9 -10 6 0 13 5 16 10 3 6 -1 10 -9 10 -9 0
-16 -4 -16 -10z"/>
<path d="M3054 2420 c0 -69 1 -97 3 -62 2 34 2 90 0 125 -2 34 -3 6 -3 -63z"/>
<path d="M3740 2525 c0 -5 7 -32 15 -60 l15 -50 -6 45 c-6 40 -23 90 -24 65z"/>
<path d="M3720 2407 c0 -14 5 -29 10 -32 7 -4 8 3 4 22 -9 38 -14 42 -14 10z"/>
<path d="M3771 2405 c-1 -16 46 -185 69 -245 21 -55 21 -39 0 35 -6 22 -12 46
-12 53 -1 6 -5 12 -10 12 -4 0 -8 8 -8 18 0 20 -38 142 -39 127z"/>
<path d="M3567 2278 c-9 -157 -46 -391 -68 -423 -3 -5 -9 -23 -12 -40 -5 -26
-4 -25 13 10 30 64 69 284 76 431 4 74 5 134 2 134 -3 0 -8 -51 -11 -112z"/>
<path d="M3741 2334 c0 -11 3 -14 6 -6 3 7 2 16 -1 19 -3 4 -6 -2 -5 -13z"/>
<path d="M2360 2336 c0 -2 9 -6 20 -9 11 -3 20 -1 20 4 0 5 -9 9 -20 9 -11 0
-20 -2 -20 -4z"/>
<path d="M3963 2280 c0 -30 2 -43 4 -27 2 15 2 39 0 55 -2 15 -4 2 -4 -28z"/>
<path d="M3750 2288 c0 -9 5 -20 10 -23 13 -8 13 5 0 25 -8 13 -10 13 -10 -2z"/>
<path d="M3041 2263 c-1 -18 -5 -33 -11 -33 -5 0 -10 -16 -10 -35 0 -19 4 -35
9 -35 11 0 26 102 18 122 -3 7 -6 -2 -6 -19z"/>
<path d="M2966 2262 c6 -4 13 -14 16 -22 3 -10 6 -8 10 8 5 18 2 22 -15 22
-13 0 -17 -3 -11 -8z"/>
<path d="M3756 2238 c-2 -7 -14 -58 -26 -113 -12 -55 -45 -179 -72 -275 -45
-160 -62 -219 -135 -455 -13 -43 -29 -85 -35 -92 -6 -7 -7 -13 -3 -13 4 0 2
-6 -4 -14 -6 -8 -10 -20 -9 -27 2 -7 -2 -13 -9 -14 -6 0 -15 -4 -20 -8 -4 -5
-3 -7 2 -5 6 2 10 -2 10 -7 0 -6 -3 -9 -6 -8 -3 1 -4 -9 -1 -22 2 -13 -3 -36
-11 -52 -8 -15 -21 -47 -27 -70 -7 -23 -16 -40 -21 -38 -4 3 -5 -4 -2 -15 3
-12 -1 -22 -10 -26 -9 -3 -13 -12 -10 -20 3 -8 -1 -14 -11 -14 -18 0 -22 25
-6 35 13 8 13 25 1 25 -11 0 -22 -29 -26 -66 -2 -25 10 -33 18 -11 2 6 7 9 11
6 7 -7 -13 -59 -24 -59 -3 0 -12 -16 -19 -35 -7 -19 -17 -35 -22 -35 -6 0 -7
-4 -4 -10 3 -5 1 -10 -4 -10 -6 0 -11 5 -11 11 0 5 -4 8 -9 5 -10 -7 -9 -31 2
-42 10 -10 -13 -45 -25 -38 -7 5 -8 2 -3 -6 6 -10 4 -12 -8 -7 -18 7 -33 -8
-17 -18 18 -11 11 -27 -9 -20 -11 3 -23 0 -27 -6 -4 -7 -3 -9 4 -5 13 8 21
-15 10 -29 -4 -5 -18 -22 -29 -38 -11 -15 -24 -25 -28 -23 -4 3 -13 -5 -21
-17 -12 -21 -12 -21 6 -8 10 8 -1 -6 -25 -31 -24 -26 -47 -46 -51 -45 -4 1
-19 -12 -33 -30 -20 -23 -33 -30 -50 -26 -15 3 -18 2 -9 -5 10 -7 7 -13 -12
-26 -14 -9 -26 -13 -26 -9 0 5 -4 4 -8 -2 -12 -17 -47 -41 -38 -27 4 6 2 12
-3 12 -6 0 -11 -7 -11 -15 0 -13 -13 -20 -23 -12 -2 1 -11 -4 -20 -12 -11 -9
-17 -10 -17 -2 0 6 -8 11 -17 10 -11 0 -13 -3 -5 -6 6 -2 12 -9 12 -14 0 -6
-4 -7 -10 -4 -5 3 -10 1 -10 -5 0 -6 -5 -8 -11 -4 -6 3 -15 0 -20 -7 -8 -12
-11 -12 -19 1 -8 13 -11 13 -22 1 -11 -12 -10 -13 2 -6 12 6 13 5 3 -5 -10
-11 -15 -11 -29 1 -12 9 -15 10 -10 2 9 -16 14 -15 -108 -17 -79 -2 -108 2
-137 16 -44 21 -95 24 -102 6 -3 -10 -8 -9 -22 2 -10 8 -21 14 -24 13 -12 -5
-70 21 -65 29 3 4 -3 5 -12 1 -13 -5 -15 -3 -9 7 6 9 4 11 -5 5 -9 -5 -25 5
-49 31 -20 22 -29 31 -21 19 8 -11 -9 4 -38 33 -28 28 -56 52 -61 52 -6 0 -15
10 -22 21 -6 12 -7 19 -1 15 5 -3 12 1 15 9 5 11 1 12 -17 5 -19 -7 -28 -4
-43 13 l-18 22 25 -20 25 -20 -24 28 c-14 15 -30 27 -36 27 -7 0 -20 9 -30 20
-13 14 -14 20 -5 20 9 0 8 6 -5 20 -10 11 -30 20 -45 20 -31 0 -60 28 -63 58
-1 16 -4 18 -14 11 -9 -8 -19 -4 -35 12 -14 14 -17 20 -7 16 9 -3 16 0 16 9 0
7 -5 11 -10 7 -5 -3 -21 3 -35 14 -15 11 -35 22 -45 26 -10 4 -15 12 -12 17 4
6 1 9 -7 8 -7 -2 -12 3 -10 10 1 8 -1 11 -6 8 -5 -3 -22 10 -37 29 -16 18 -31
32 -34 31 -3 -2 -14 5 -25 15 -18 17 -17 18 5 12 l24 -6 -20 22 c-13 16 -26
20 -42 16 -20 -5 -23 -2 -23 22 0 38 -36 62 -58 39 -14 -13 -18 -13 -46 2 -24
13 -58 17 -146 18 -63 1 -121 -3 -128 -9 -6 -5 -12 -6 -12 -3 0 4 -7 0 -16 -9
-14 -13 -19 -14 -25 -3 -7 10 -9 9 -9 -3 0 -9 -8 -23 -17 -30 -17 -13 -17 -13
-3 6 14 19 14 19 -2 6 -10 -7 -16 -17 -13 -21 2 -3 -3 -17 -12 -29 -12 -18
-17 -20 -24 -10 -6 10 -9 10 -9 2 0 -6 5 -15 10 -18 6 -4 7 -12 3 -18 -4 -7
-9 -34 -11 -62 -4 -58 -5 -60 -29 -50 -10 5 -21 8 -25 7 -3 -1 -24 18 -46 42
-30 33 -42 56 -47 90 -13 86 7 131 106 237 l37 39 88 0 c164 -1 367 -38 498
-91 39 -16 71 -27 73 -25 6 6 -158 73 -242 99 -272 85 -481 48 -557 -96 -17
-32 -22 -59 -22 -112 0 -91 22 -133 113 -214 88 -78 131 -157 138 -256 8 -96
23 -90 23 10 0 78 -3 93 -36 163 -46 98 -48 149 -8 223 43 79 79 99 178 99 45
0 109 -7 144 -15 113 -27 156 -56 317 -220 157 -158 411 -392 499 -459 28 -21
80 -52 115 -69 l63 -30 157 6 c313 12 509 83 626 225 90 108 214 311 313 507
85 172 273 782 335 1093 18 90 36 159 40 156 4 -4 7 0 7 9 0 20 -19 32 -24 15z
m-2337 -1217 c11 -7 11 -10 0 -17 -7 -4 -14 -3 -17 4 -2 7 -9 9 -14 6 -7 -4
-8 -2 -4 4 8 14 16 15 35 3z m-489 -262 c15 -28 5 -23 -15 7 -9 15 -12 23 -6
20 6 -4 16 -16 21 -27z m911 -126 c13 -16 12 -17 -3 -4 -17 13 -22 21 -14 21
2 0 10 -8 17 -17z m539 -353 c0 -6 -12 -8 -26 -6 -39 7 -42 16 -6 16 18 0 32
-5 32 -10z"/>
<path d="M2638 2193 c7 -3 16 -2 19 1 4 3 -2 6 -13 5 -11 0 -14 -3 -6 -6z"/>
<path d="M3972 2160 c0 -19 2 -27 5 -17 2 9 2 25 0 35 -3 9 -5 1 -5 -18z"/>
<path d="M3001 2113 c2 -35 -17 -83 -33 -83 -4 0 -4 -7 -1 -17 5 -12 3 -14 -7
-8 -8 5 -45 10 -82 11 -37 2 -75 7 -85 12 -17 8 -97 3 -243 -16 -46 -6 -26
-10 130 -20 102 -7 203 -17 225 -22 37 -9 42 -8 62 17 12 15 21 29 20 32 0 3
6 20 15 37 22 40 27 86 10 91 -9 4 -12 -6 -11 -34z m-46 -113 c3 -5 2 -10 -4
-10 -5 0 -13 5 -16 10 -3 6 -2 10 4 10 5 0 13 -4 16 -10z"/>
<path d="M2505 2130 c3 -5 8 -10 11 -10 2 0 4 5 4 10 0 6 -5 10 -11 10 -5 0
-7 -4 -4 -10z"/>
<path d="M4237 2103 c-10 -9 -8 -33 2 -33 5 0 11 9 14 20 5 20 -3 26 -16 13z"/>
<path d="M2471 2084 c0 -11 3 -14 6 -6 3 7 2 16 -1 19 -3 4 -6 -2 -5 -13z"/>
<path d="M3860 2091 c0 -6 4 -13 10 -16 6 -3 7 1 4 9 -7 18 -14 21 -14 7z"/>
<path d="M3880 2053 c0 -14 29 -83 35 -83 3 0 -3 19 -12 43 -18 47 -23 55 -23
40z"/>
<path d="M3982 2005 c-1 -33 -5 -71 -8 -85 -5 -21 -4 -22 6 -8 6 10 9 47 7 85
l-3 68 -2 -60z"/>
<path d="M4222 2048 c-7 -7 -12 -15 -12 -19 0 -4 -5 -20 -12 -36 -6 -15 -12
-30 -13 -33 -5 -17 -42 -90 -59 -114 -10 -15 -33 -34 -50 -42 -17 -7 -23 -13
-14 -14 28 0 76 48 105 108 15 31 28 59 28 62 1 3 6 15 13 27 14 25 33 73 29
73 -2 0 -8 -5 -15 -12z"/>
<path d="M2513 1983 c9 -2 23 -2 30 0 6 3 -1 5 -18 5 -16 0 -22 -2 -12 -5z"/>
<path d="M3850 1975 c0 -5 5 -17 10 -25 5 -8 10 -10 10 -5 0 6 -5 17 -10 25
-5 8 -10 11 -10 5z"/>
<path d="M2885 1950 c11 -5 30 -9 42 -9 12 -1 26 -7 30 -15 5 -8 15 -11 28 -6
19 7 19 7 -2 14 -13 4 -23 10 -23 14 0 4 -21 8 -48 9 -34 1 -41 -1 -27 -7z"/>
<path d="M3940 1901 c14 -28 25 -40 31 -34 7 7 -1 22 -21 44 l-32 34 22 -44z"/>
<path d="M3870 1923 c0 -6 9 -21 21 -34 l20 -24 -17 30 c-24 39 -24 40 -24 28z"/>
<path d="M3066 1871 c-3 -5 1 -12 10 -15 22 -8 25 -4 9 11 -8 7 -16 9 -19 4z"/>
<path d="M3910 1852 c0 -12 19 -26 26 -19 2 2 -2 10 -11 17 -9 8 -15 8 -15 2z"/>
<path d="M2561 1834 c0 -11 3 -14 6 -6 3 7 2 16 -1 19 -3 4 -6 -2 -5 -13z"/>
<path d="M2297 1799 c3 -10 9 -16 14 -13 13 8 11 21 -5 27 -10 4 -12 0 -9 -14z"/>
<path d="M3013 1813 c9 -2 23 -2 30 0 6 3 -1 5 -18 5 -16 0 -22 -2 -12 -5z"/>
<path d="M3950 1805 c7 -8 20 -15 28 -15 13 0 12 3 -4 15 -25 19 -40 19 -24 0z"/>
<path d="M4008 1783 c6 -2 18 -2 25 0 6 3 1 5 -13 5 -14 0 -19 -2 -12 -5z"/>
<path d="M3420 1709 c0 -5 5 -7 10 -4 6 3 10 8 10 11 0 2 -4 4 -10 4 -5 0 -10
-5 -10 -11z"/>
<path d="M3360 1690 l-45 -7 42 -1 c23 -1 45 3 48 8 3 6 5 9 3 8 -2 0 -23 -4
-48 -8z"/>
<path d="M2417 1646 c-4 -10 0 -12 14 -9 10 3 16 9 13 14 -8 13 -21 11 -27 -5z"/>
<path d="M2480 1583 c0 -8 -4 -11 -10 -8 -6 3 -7 -1 -4 -9 8 -21 9 -20 27 7
13 20 13 24 1 24 -8 0 -14 -7 -14 -14z"/>
<path d="M1280 1119 c0 -4 -8 -9 -17 -12 -10 -2 1 -3 24 -3 47 1 57 11 18 18
-14 3 -25 2 -25 -3z"/>
<path d="M1018 1113 c6 -2 18 -2 25 0 6 3 1 5 -13 5 -14 0 -19 -2 -12 -5z"/>
<path d="M1350 1095 c0 -19 25 -36 44 -29 12 5 14 10 6 19 -16 19 -50 26 -50
10z"/>
<path d="M1597 1089 c7 -7 15 -10 18 -7 3 3 -2 9 -12 12 -14 6 -15 5 -6 -5z"/>
<path d="M1208 1083 c6 -2 18 -2 25 0 6 3 1 5 -13 5 -14 0 -19 -2 -12 -5z"/>
<path d="M3370 1071 c-14 -27 -13 -36 3 -22 8 6 16 8 20 5 3 -3 3 3 0 15 -7
26 -10 26 -23 2z"/>
<path d="M930 1070 c-8 -5 -10 -10 -5 -10 6 0 17 5 25 10 8 5 11 10 5 10 -5 0
-17 -5 -25 -10z"/>
<path d="M911 1034 c0 -11 3 -14 6 -6 3 7 2 16 -1 19 -3 4 -6 -2 -5 -13z"/>
<path d="M1493 1030 c-13 -5 -22 -17 -22 -27 1 -17 2 -17 6 0 4 15 22 22 46
18 5 -1 6 3 2 9 -3 5 -7 10 -8 9 -1 0 -12 -4 -24 -9z"/>
<path d="M851 904 c0 -11 3 -14 6 -6 3 7 2 16 -1 19 -3 4 -6 -2 -5 -13z"/>
<path d="M1640 910 c0 -5 5 -10 11 -10 5 0 7 5 4 10 -3 6 -8 10 -11 10 -2 0
-4 -4 -4 -10z"/>
<path d="M3296 883 c-6 -14 -5 -15 5 -6 7 7 10 15 7 18 -3 3 -9 -2 -12 -12z"/>
<path d="M1625 861 c-3 -5 -1 -12 5 -16 5 -3 10 1 10 9 0 18 -6 21 -15 7z"/>
<path d="M1720 846 c0 -2 8 -10 18 -17 15 -13 16 -12 3 4 -13 16 -21 21 -21
13z"/>
<path d="M1803 765 c0 -8 4 -12 9 -9 5 3 6 10 3 15 -9 13 -12 11 -12 -6z"/>
<path d="M1857 689 c10 -17 29 -39 41 -48 13 -9 33 -25 45 -36 18 -17 78 -32
61 -16 -3 3 -11 6 -17 6 -7 1 -10 7 -9 15 2 8 1 12 -3 8 -4 -4 -18 6 -32 23
-14 16 -28 27 -33 24 -9 -5 -28 15 -28 30 0 5 -10 13 -22 17 -21 8 -21 7 -3
-23z"/>
<path d="M1791 684 c0 -11 3 -14 6 -6 3 7 2 16 -1 19 -3 4 -6 -2 -5 -13z"/>
<path d="M1900 610 c0 -5 10 -10 23 -10 18 0 19 2 7 10 -19 13 -30 13 -30 0z"/>
<path d="M3125 609 c-4 -6 -4 -13 -1 -16 3 -4 6 -1 6 6 0 8 7 11 15 7 8 -3 15
-1 15 4 0 13 -27 13 -35 -1z"/>
<path d="M2047 549 c7 -7 15 -10 18 -7 3 3 -2 9 -12 12 -14 6 -15 5 -6 -5z"/>
<path d="M3030 530 c0 -5 -5 -9 -11 -7 -6 1 -13 -4 -14 -11 -2 -7 -1 -8 1 -3
6 11 44 2 44 -11 0 -5 -5 -6 -12 -2 -7 4 -8 3 -4 -5 9 -14 31 0 47 31 8 16 6
18 -21 18 -16 0 -30 -4 -30 -10z"/>
<path d="M2086 517 c3 -10 9 -15 12 -12 3 3 0 11 -7 18 -10 9 -11 8 -5 -6z"/>
<path d="M2021 491 c-8 -5 -9 -11 -3 -15 5 -3 12 1 16 9 6 17 6 18 -13 6z"/>
<path d="M2131 472 c0 -9 3 -12 5 -5 3 7 11 10 19 7 7 -3 15 -2 18 3 3 5 -5
10 -19 11 -17 1 -24 -3 -23 -16z"/>
<path d="M2245 439 c-7 -11 -8 -11 33 -14 18 -1 35 1 38 6 3 5 -2 6 -10 3 -9
-3 -16 -2 -16 3 0 12 -38 14 -45 2z"/>
<path d="M2977 443 c-4 -3 -7 -11 -7 -17 0 -6 5 -5 12 2 6 6 9 14 7 17 -3 3
-9 2 -12 -2z"/>
<path d="M2770 414 c0 -8 5 -12 10 -9 6 4 8 11 5 16 -9 14 -15 11 -15 -7z"/>
<path d="M2690 410 l-25 -8 28 -1 c15 -1 27 4 27 9 0 6 -1 10 -2 9 -2 -1 -14
-5 -28 -9z"/>
<path d="M2475 401 c-9 -15 82 -25 128 -14 l42 10 -55 -1 c-30 0 -67 2 -82 7
-15 4 -29 3 -33 -2z"/>
<path d="M2676 383 c5 -5 12 -12 15 -16 3 -5 9 -2 12 7 5 12 0 16 -15 16 -12
0 -17 -3 -12 -7z"/>
<path d="M2498 283 c7 -3 16 -2 19 1 4 3 -2 6 -13 5 -11 0 -14 -3 -6 -6z"/>
</g>
</svg>
